# xmcd
#
# Track frame offsets:
#	150
#	13824
#	28271
#	43213
#	60049
#	73795
#	93078
#	111075
#	127713
#	148262
#	165280
#	180776
#	194993
#	209221
#	221744
#	239871
#
# Disc length: 3426
#
# Revision: 4
# Processed by: cddbd v1.5.1PL0 Copyright (c) Steve Scherf et al.
# Submitted via: CDex 1.50
# Normalized: r3:DSETVAR1
#
DISCID=f00d6010
DTITLE=Various Artist - Smash Country - Volume 10
DYEAR=1900
DGENRE=Country
TTITLE0=Shania Twain - No One Needs To Know
TTITLE1=Doug Supernaw - Not Enough Hours In The Night
TTITLE2=Brooks and Dunn - Boot Scootin' Boogie
TTITLE3=Alan Jackson - Midnight In Montgomery
TTITLE4=Clay Walker - Then What?
TTITLE5=Tracy Byrd - The Keeper Of The Stars
TTITLE6=Collin Raye - Little Rock
TTITLE7=Ty Herndon - Loved Too Much
TTITLE8=Garth Brooks - You Move Me
TTITLE9=Kathy Mattea - Where've You Been
TTITLE10=Toby Keith - Wish I Didn't Know Know Now
TTITLE11=Mark Collie - Born To Love You
TTITLE12=Shenandoah - Rock My Baby
TTITLE13=Tim McGraw - Refried Dreams
TTITLE14=Faith Hill - Piece Of My Heart
TTITLE15=Travis Tritt - Anymore
EXTD=
EXTT0=
EXTT1=
EXTT2=
EXTT3=
EXTT4=
EXTT5=
EXTT6=
EXTT7=
EXTT8=
EXTT9=
EXTT10=
EXTT11=
EXTT12=
EXTT13=
EXTT14=
EXTT15=
PLAYORDER=
